<?xml version="1.0" encoding="UTF-8"?>
<svg version="1.1" xmlns="http://www.w3.org/2000/svg" width="512" height="512">
<path d="M0 0 C2.45819952 2.17747921 4.84676301 4.40889449 7.21875 6.6796875 C8.32089844 7.68708984 8.32089844 7.68708984 9.4453125 8.71484375 C30.77170268 28.87318076 44.28047662 58.63275633 47.21875 87.6796875 C47.21875 91.3096875 47.21875 94.9396875 47.21875 98.6796875 C-41.22125 98.6796875 -129.66125 98.6796875 -220.78125 98.6796875 C-220.78125 83.56521166 -220.78125 83.56521166 -219.09375 76.3046875 C-218.91295898 75.49797607 -218.73216797 74.69126465 -218.54589844 73.86010742 C-210.66616769 39.86114993 -190.32840856 9.07947341 -160.74609375 -9.890625 C-110.28968494 -41.1472434 -46.02070239 -38.39367587 0 0 Z M-51.53125 -2.1328125 C-53.0021445 -0.36083226 -53.0021445 -0.36083226 -52.80859375 2.05859375 C-51.51946373 5.34759087 -49.8452643 6.06241741 -46.71582031 7.50512695 C-46.01553711 7.81023193 -45.31525391 8.11533691 -44.59375 8.4296875 C-22.98004599 18.58077218 -6.73043093 32.80774113 5.0625 53.75390625 C6.19668547 55.81912049 6.19668547 55.81912049 8.21875 57.6796875 C11.52558466 57.38985481 11.52558466 57.38985481 14.21875 55.6796875 C13.90781186 49.77926605 12.12408394 46.18812698 8.84375 41.4921875 C8.39966797 40.84362793 7.95558594 40.19506836 7.49804688 39.52685547 C2.94807076 33.03757135 -2.18469888 27.27623862 -7.78125 21.6796875 C-8.98201172 20.47892578 -8.98201172 20.47892578 -10.20703125 19.25390625 C-16.45541204 13.3327729 -42.26432637 -8.42108211 -51.53125 -2.1328125 Z " fill="#FD7B29" transform="translate(307.78125,212.3203125)"/>
<path d="M0 0 C0.93328125 0.41894531 1.8665625 0.83789062 2.828125 1.26953125 C10.75037071 5.19670163 16.80947722 10.81815958 23 17 C23.74378906 17.7321875 24.48757813 18.464375 25.25390625 19.21875 C41.2804947 36.02941812 45.51605867 56.95102516 45.28515625 79.4296875 C45.06721388 87.12885763 43.67959089 93.75207882 41 101 C40.566875 102.33611328 40.566875 102.33611328 40.125 103.69921875 C33.26001836 123.22151029 16.89579154 138.14620939 -1.171875 147.23828125 C-19.05092777 155.77475908 -42.29395031 157.33344856 -61.09082031 150.73632812 C-83.44204278 142.11595895 -100.21606161 127.5206708 -110.42578125 105.6953125 C-119.19788845 85.8174758 -118.72588117 63.86026902 -111.46875 43.62890625 C-102.68117916 21.91706235 -87.37763883 6.7672546 -66.05859375 -2.41015625 C-44.48865597 -11.15445225 -20.97151959 -9.48064811 0 0 Z M-89.78515625 51.578125 C-91.28511016 53.01319875 -91.28511016 53.01319875 -90.9375 55.5625 C-90.23865664 58.15438282 -90.23865664 58.15438282 -87.94140625 59.15234375 C-87.30074219 59.43207031 -86.66007812 59.71179688 -86 60 C-85.22398437 59.35933594 -84.44796875 58.71867187 -83.6484375 58.05859375 C-65.21951952 43.16825893 -47.51248515 38.53968041 -24 40 C-8.85110678 41.79458607 3.55363513 50.55009412 15 60 C16.65 59.01 18.3 58.02 20 57 C19.34403369 51.49558708 16.9569936 49.56658482 12.84375 46.1171875 C-19.87772193 21.75587186 -59.56286701 24.86082773 -89.78515625 51.578125 Z M-70.625 69.875 C-71.40875 70.90625 -72.1925 71.9375 -73 73 C-72.01 74.65 -71.02 76.3 -70 78 C-65.94807592 77.47056741 -63.9101224 76.38218091 -60.875 73.6875 C-50.98002854 65.82972855 -40.48826168 64.83160557 -28.21630859 65.72949219 C-19.73044796 66.76521961 -13.19613624 71.06791306 -7.03515625 76.7421875 C-5.02586736 78.23869477 -5.02586736 78.23869477 -2.37109375 77.9453125 C0.15007615 77.20802684 0.15007615 77.20802684 1.3125 74.9375 C1.539375 74.298125 1.76625 73.65875 2 73 C-4.05999133 64.75167847 -13.02729726 59.01020992 -22.98046875 56.4375 C-40.00132089 53.97134807 -58.72575468 56.11302235 -70.625 69.875 Z M-45 83 C-49.49109891 87.14938486 -51.79417194 90.53006325 -52.3125 96.75 C-52.24231581 101.52252495 -50.75765893 104.12437123 -48 108 C-42.83150862 112.67625411 -39.60481238 113.35785073 -32.76171875 113.27734375 C-27.52915958 112.75186751 -24.9931093 110.15415406 -21.6875 106.3125 C-19.24464405 101.51726425 -18.08149404 97.06348754 -19.6640625 91.78515625 C-21.97413645 86.74243385 -24.7233196 83.26171027 -30.0390625 81.21484375 C-35.66612747 79.60020483 -40.01027303 79.802801 -45 83 Z " fill="#FEA92F" transform="translate(436,58)"/>
<path d="M0 0 C108.24 0 216.48 0 328 0 C325.27485572 16.35086569 325.27485572 16.35086569 318.125 22.8125 C310.78206111 27.95255722 305.0736043 28.43595765 296.28518677 28.38768005 C295.10949281 28.39306559 293.93379884 28.39845113 292.72247779 28.40399987 C289.47190649 28.41580637 286.22166513 28.41421974 282.97109103 28.40683305 C279.46041929 28.40209583 275.94980211 28.41461615 272.43914795 28.42485046 C265.56627359 28.44203335 258.69349067 28.4428795 251.82060041 28.43763756 C246.23302019 28.43359345 240.64546696 28.43504228 235.05788803 28.44038582 C233.86425238 28.44150845 233.86425238 28.44150845 232.64650287 28.44265376 C231.02982919 28.44418527 229.41315551 28.44572362 227.79648183 28.44726873 C212.64050092 28.46099208 197.48457166 28.45555739 182.32859193 28.44408352 C168.47083294 28.43415267 154.61320749 28.44708951 140.7554691 28.47101771 C126.5181639 28.49541562 112.28092088 28.5050148 98.04359519 28.49836498 C90.05370378 28.49487412 82.06391505 28.49709595 74.07403946 28.51461601 C67.27197356 28.52934671 60.47008264 28.52996224 53.66802014 28.5125451 C50.19949053 28.50403951 46.73127338 28.5018743 43.26276016 28.51719666 C39.49780545 28.53037936 35.73369876 28.51888131 31.96878052 28.50120544 C30.87917782 28.51081045 29.78957512 28.52041546 28.66695416 28.53031152 C20.95052591 28.45583302 14.98115045 26.89476872 8.6953125 22.32421875 C1.90388518 15.24559176 1.01223556 10.12235558 0 0 Z " fill="#FD6F27" transform="translate(57,320)"/>
<path d="M0 0 C39.6 0 79.2 0 120 0 C120 20.13 120 40.26 120 61 C80.4 61 40.8 61 0 61 C0 40.87 0 20.74 0 0 Z " fill="#FC5123" transform="translate(55,395)"/>
<path d="M0 0 C0.6875 1.625 0.6875 1.625 1 4 C-0.9689856 8.74558901 -3.73694912 12.26416002 -7.25 15.9375 C-8.02911743 16.76459473 -8.02911743 16.76459473 -8.82397461 17.60839844 C-10.53832843 19.41649216 -12.26672865 21.21003948 -14 23 C-14.61053223 23.63244629 -15.22106445 24.26489258 -15.85009766 24.91650391 C-35.20744023 44.87453982 -60.82926585 69.0447445 -90.26757812 69.58007812 C-92.80230034 69.59837669 -95.33449998 69.59000961 -97.86912537 69.5610199 C-100.60531313 69.53042177 -103.33996531 69.53209186 -106.07629395 69.5411377 C-112.86492893 69.55724975 -119.65306522 69.52019451 -126.44158936 69.48455811 C-132.2030827 69.45640066 -137.96391231 69.44907773 -143.72544861 69.46812439 C-146.39275348 69.46873267 -149.05860673 69.43980666 -151.72570801 69.40930176 C-161.31062051 69.38493131 -169.14926277 70.43974438 -178.11242676 73.92492676 C-181 75 -181 75 -184 75 C-184.25436226 68.72036682 -184.42898665 62.44206736 -184.54931641 56.15844727 C-184.59948952 54.02317681 -184.66764925 51.88824798 -184.75439453 49.75415039 C-185.45517619 32.06559697 -185.45517619 32.06559697 -181.96240234 27.10766602 C-179.35633089 25.23659622 -177.0112968 24.08124499 -174 23 C-172.85273438 22.41347656 -171.70546875 21.82695312 -170.5234375 21.22265625 C-157.41411698 16.39205055 -145.25573146 17.78928465 -131.71777344 19.27856445 C-118.7837478 20.63750271 -106.11105732 20.58576278 -93.26953125 18.453125 C-87.89631717 17.70845017 -82.40357664 17.43643679 -77 18 C-75 20 -75 20 -74.5625 23.375 C-75 27 -75 27 -76.96875 29.12109375 C-80.92108419 31.57092976 -84.37558733 32.10390637 -88.9375 32.6875 C-90.23204102 32.87010376 -90.23204102 32.87010376 -91.55273438 33.05639648 C-99.29131589 34.07225866 -107.03983024 34.45886994 -114.83959961 34.62182617 C-116.1564978 34.65626831 -116.1564978 34.65626831 -117.5 34.69140625 C-118.2734375 34.70373291 -119.046875 34.71605957 -119.84375 34.72875977 C-122.25291871 35.03181529 -123.90309168 35.80351126 -126 37 C-125.505 39.475 -125.505 39.475 -125 42 C-99.96812236 48.78482104 -64.72219818 37.37239849 -43 25 C-34.80806671 19.95559999 -26.8963333 14.49114501 -19 9 C-17.55243213 8.00079658 -16.10455806 7.00203649 -14.65625 6.00390625 C-12.49572167 4.51310187 -10.34314397 3.01311583 -8.1953125 1.50390625 C-4.88317723 -0.76508322 -3.82026378 -1.14607913 0 0 Z " fill="#FD6E27" transform="translate(404,370)"/>
<path d="M0 0 C8.91 0 17.82 0 27 0 C27 24.75 27 49.5 27 75 C18.09 75 9.18 75 0 75 C0 50.25 0 25.5 0 0 Z " fill="#FC5E25" transform="translate(184,387)"/>
<path d="M0 0 C0.79541199 -0.00350464 1.59082397 -0.00700928 2.41033936 -0.01062012 C5.04187729 -0.01942888 7.67314679 -0.01359133 10.3046875 -0.00683594 C12.1316737 -0.00818283 13.95865956 -0.01012357 15.78564453 -0.01263428 C19.61559459 -0.01558438 23.4454514 -0.01129155 27.27539062 -0.00195312 C32.18844017 0.00944134 37.10127122 0.00288126 42.01431274 -0.00909805 C45.78720755 -0.01631972 49.56005042 -0.01402731 53.33294678 -0.00884247 C55.14467393 -0.00750682 56.95640577 -0.00915073 58.76812744 -0.01380157 C61.29867064 -0.01887182 63.82885832 -0.01114963 66.359375 0 C67.1106366 -0.00404846 67.86189819 -0.00809692 68.63592529 -0.01226807 C72.36709902 0.01823941 73.99219754 0.13379576 77.1796875 2.25878906 C78.0546875 4.63378906 78.0546875 4.63378906 78.1796875 7.25878906 C77.18873596 9.39248657 77.18873596 9.39248657 75.1796875 11.25878906 C72.37618581 11.65080244 69.9640099 11.78547648 67.15991211 11.74462891 C66.34338669 11.7484256 65.52686127 11.75222229 64.68559265 11.75613403 C61.98401599 11.7635495 59.28351246 11.74214556 56.58203125 11.71972656 C54.70781074 11.71734284 52.8335878 11.71643666 50.95936584 11.71694946 C47.03094533 11.71381987 43.10288937 11.69724102 39.17456055 11.67041016 C34.13135188 11.63640665 29.0885436 11.62878212 24.04523373 11.63030052 C20.17542171 11.62975752 16.30569777 11.61880195 12.43591499 11.60429764 C10.57591989 11.5979201 8.71591479 11.59398852 6.85590935 11.59251022 C4.26045489 11.58818864 1.66543082 11.57071332 -0.92993164 11.54931641 C-2.09026917 11.55067596 -2.09026917 11.55067596 -3.27404785 11.55206299 C-8.59135549 11.48774608 -8.59135549 11.48774608 -10.8203125 9.25878906 C-11.1328125 5.75878906 -11.1328125 5.75878906 -10.8203125 2.25878906 C-7.11425893 -0.21191332 -4.28716469 -0.02310304 0 0 Z " fill="#FD7328" transform="translate(41.8203125,158.7412109375)"/>
<path d="M0 0 C1.11132797 -0.0159874 2.22265594 -0.03197479 3.36766052 -0.04844666 C4.57285843 -0.05380936 5.77805634 -0.05917206 7.01977539 -0.06469727 C8.25280899 -0.07372574 9.48584259 -0.08275421 10.75624084 -0.09205627 C13.36806804 -0.10658599 15.97993187 -0.11545223 18.59179688 -0.11914062 C21.27416286 -0.12345743 23.95557347 -0.14436074 26.63769531 -0.18066406 C30.49452227 -0.2292865 34.35017435 -0.24491001 38.20727539 -0.25219727 C39.41044907 -0.27172958 40.61362274 -0.2912619 41.85325623 -0.31138611 C43.52497643 -0.30226952 43.52497643 -0.30226952 45.23046875 -0.29296875 C46.21260849 -0.2980394 47.19474823 -0.30311005 48.20664978 -0.30833435 C50.67993164 0.30639648 50.67993164 0.30639648 52.56349182 2.67198181 C53.67993164 5.30639648 53.67993164 5.30639648 52.99243164 8.05639648 C51.67993164 10.30639648 51.67993164 10.30639648 49.67993164 11.30639648 C47.97005174 11.40709933 46.25628588 11.44475715 44.54345703 11.45166016 C42.93652733 11.46122993 42.93652733 11.46122993 41.2971344 11.47099304 C39.55495888 11.47266228 39.55495888 11.47266228 37.77758789 11.47436523 C36.58894638 11.47769363 35.40030487 11.48102203 34.17564392 11.48445129 C31.65795276 11.48952148 29.14025486 11.49185959 26.62255859 11.49169922 C22.76201352 11.4938854 18.90175422 11.51203961 15.04125977 11.53100586 C12.59920346 11.53393976 10.15714578 11.53592458 7.71508789 11.53686523 C6.55566177 11.54405075 5.39623566 11.55123627 4.20167542 11.55863953 C3.12723679 11.5555629 2.05279816 11.55248627 0.94580078 11.54931641 C-0.47411415 11.55145393 -0.47411415 11.55145393 -1.92271423 11.55363464 C-4.32006836 11.30639648 -4.32006836 11.30639648 -7.32006836 9.30639648 C-7.63256836 5.80639648 -7.63256836 5.80639648 -7.32006836 2.30639648 C-4.72113027 -0.2925416 -3.62028114 0.03925134 0 0 Z " fill="#FD6A27" transform="translate(38.320068359375,204.693603515625)"/>
<path d="M0 0 C1.87171875 -0.00386719 1.87171875 -0.00386719 3.78125 -0.0078125 C5.74578125 0.00378906 5.74578125 0.00378906 7.75 0.015625 C9.0596875 0.00789062 10.369375 0.00015625 11.71875 -0.0078125 C12.9665625 -0.00523437 14.214375 -0.00265625 15.5 0 C16.64984375 0.00225586 17.7996875 0.00451172 18.984375 0.00683594 C21.75 0.265625 21.75 0.265625 23.75 2.265625 C24.125 5.203125 24.125 5.203125 23.75 8.265625 C20.72357441 11.27225566 18.4321839 11.64190531 14.25 11.62890625 C13.198125 11.62826172 12.14625 11.62761719 11.0625 11.62695312 C9.969375 11.61083984 8.87625 11.59472656 7.75 11.578125 C6.656875 11.58134766 5.56375 11.58457031 4.4375 11.58789062 C-4.43095659 11.52811549 -4.43095659 11.52811549 -8.25 9.265625 C-8.375 5.890625 -8.375 5.890625 -8.25 2.265625 C-5.49055395 -0.49382105 -3.85763302 0.00756823 0 0 Z " fill="#FD6125" transform="translate(39.25,250.734375)"/>
<path d="M0 0 C2.8100346 1.79363911 4.50940468 3.01880935 6 6 C6.3751455 10.97067782 6.15878799 14.05151502 3 18 C-0.77368427 20.35452096 -3.57836256 20.21608994 -7.87109375 19.59375 C-10 19 -10 19 -12.5625 16.9375 C-14.41894415 13.14389674 -14.85457596 10.14720686 -14 6 C-10.32759145 0.24655994 -6.71744997 -0.96515086 0 0 Z " fill="#FE892B" transform="translate(225,152)"/>
<path d="M0 0 C2.32749345 3.49124017 2.50299316 4.89222251 2 9 C0.4375 11.375 0.4375 11.375 -2 13 C-5.97487617 13.56783945 -8.06489221 13.62340519 -11.4375 11.375 C-13.45932313 8.30182885 -13.52755517 6.61752119 -13 3 C-11.6602648 0.52148989 -10.72328842 -0.65082628 -8.1875 -1.875 C-5.0647141 -2.05344491 -2.84985945 -1.23906933 0 0 Z " fill="#FEA62E" transform="translate(406,149)"/>
</svg>
